<?xml version="1.0" encoding="UTF-8" standalone="no"?>
<!-- Created with Inkscape (http://www.inkscape.org/) -->

<svg
   width="512"
   height="512"
   viewBox="0 0 135.46666 135.46667"
   version="1.1"
   id="svg135"
   xml:space="preserve"
   inkscape:version="1.2.2 (732a01da63, 2022-12-09)"
   sodipodi:docname="favicon_02.svg"
   inkscape:export-filename="favicon_02.png"
   inkscape:export-xdpi="300"
   inkscape:export-ydpi="300"
   xmlns:inkscape="http://www.inkscape.org/namespaces/inkscape"
   xmlns:sodipodi="http://sodipodi.sourceforge.net/DTD/sodipodi-0.dtd"
   xmlns="http://www.w3.org/2000/svg"
   xmlns:svg="http://www.w3.org/2000/svg"><sodipodi:namedview
     id="namedview137"
     pagecolor="#ffffff"
     bordercolor="#999999"
     borderopacity="1"
     inkscape:showpageshadow="0"
     inkscape:pageopacity="0"
     inkscape:pagecheckerboard="0"
     inkscape:deskcolor="#d1d1d1"
     inkscape:document-units="mm"
     showgrid="true"
     inkscape:zoom="0.54362802"
     inkscape:cx="-186.70855"
     inkscape:cy="86.456176"
     inkscape:window-width="1920"
     inkscape:window-height="1017"
     inkscape:window-x="-8"
     inkscape:window-y="-8"
     inkscape:window-maximized="1"
     inkscape:current-layer="layer1"><inkscape:grid
       type="xygrid"
       id="grid1846" /></sodipodi:namedview><defs
     id="defs132"><clipPath
       clipPathUnits="userSpaceOnUse"
       id="clipPath7"><path
         d="M 0,188.4 H 584.16 V 0 H 0 Z"
         transform="translate(-41.971201,-138.0822)"
         id="path7" /></clipPath><clipPath
       clipPathUnits="userSpaceOnUse"
       id="clipPath9"><path
         d="M 0,188.4 H 584.16 V 0 H 0 Z"
         transform="translate(-94.511605,-121.6452)"
         id="path9" /></clipPath><clipPath
       clipPathUnits="userSpaceOnUse"
       id="clipPath11"><path
         d="M 0,188.4 H 584.16 V 0 H 0 Z"
         transform="translate(-121.07361,-122.6412)"
         id="path11" /></clipPath><clipPath
       clipPathUnits="userSpaceOnUse"
       id="clipPath13"><path
         d="M 0,188.4 H 584.16 V 0 H 0 Z"
         transform="translate(-157.16151,-120.3503)"
         id="path13" /></clipPath><clipPath
       clipPathUnits="userSpaceOnUse"
       id="clipPath15"><path
         d="M 0,188.4 H 584.16 V 0 H 0 Z"
         transform="translate(-182.9586,-120.5993)"
         id="path15" /></clipPath><clipPath
       clipPathUnits="userSpaceOnUse"
       id="clipPath17"><path
         d="M 0,188.4 H 584.16 V 0 H 0 Z"
         transform="translate(-201.7336,-122.6412)"
         id="path17" /></clipPath><clipPath
       clipPathUnits="userSpaceOnUse"
       id="clipPath19"><path
         d="M 0,188.4 H 584.16 V 0 H 0 Z"
         transform="translate(-228.65751,-115.3647)"
         id="path19" /></clipPath><clipPath
       clipPathUnits="userSpaceOnUse"
       id="clipPath21"><path
         d="M 0,188.4 H 584.16 V 0 H 0 Z"
         transform="translate(-61.592902,-121.539)"
         id="path21" /></clipPath><clipPath
       clipPathUnits="userSpaceOnUse"
       id="clipPath23"><path
         d="M 0,188.4 H 584.16 V 0 H 0 Z"
         transform="translate(-42.028201,-98.985602)"
         id="path23" /></clipPath><clipPath
       clipPathUnits="userSpaceOnUse"
       id="clipPath25"><path
         d="M 0,188.4 H 584.16 V 0 H 0 Z"
         transform="translate(-94.760605,-98.487602)"
         id="path25" /></clipPath><clipPath
       clipPathUnits="userSpaceOnUse"
       id="clipPath27"><path
         d="M 0,188.4 H 584.16 V 0 H 0 Z"
         transform="translate(-106.3144,-113.7766)"
         id="path27" /></clipPath><clipPath
       clipPathUnits="userSpaceOnUse"
       id="clipPath29"><path
         d="M 0,188.4 H 584.16 V 0 H 0 Z"
         transform="translate(-150.4881,-98.985602)"
         id="path29" /></clipPath><clipPath
       clipPathUnits="userSpaceOnUse"
       id="clipPath31"><path
         d="M 0,188.4 H 584.16 V 0 H 0 Z"
         transform="translate(-173.8449,-98.985602)"
         id="path31" /></clipPath><clipPath
       clipPathUnits="userSpaceOnUse"
       id="clipPath33"><path
         d="M 0,188.4 H 584.16 V 0 H 0 Z"
         transform="translate(-186.843,-113.7766)"
         id="path33" /></clipPath><clipPath
       clipPathUnits="userSpaceOnUse"
       id="clipPath35"><path
         d="M 0,188.4 H 584.16 V 0 H 0 Z"
         transform="translate(-220.16011,-115.42)"
         id="path35" /></clipPath><clipPath
       clipPathUnits="userSpaceOnUse"
       id="clipPath37"><path
         d="M 0,188.4 H 584.16 V 0 H 0 Z"
         transform="translate(-69.909701,-115.4698)"
         id="path37" /></clipPath><clipPath
       clipPathUnits="userSpaceOnUse"
       id="clipPath39"><path
         d="M 0,188.4 H 584.16 V 0 H 0 Z"
         transform="translate(-49.590801,-113.7766)"
         id="path39" /></clipPath><clipPath
       clipPathUnits="userSpaceOnUse"
       id="clipPath41"><path
         d="M 0,188.4 H 584.16 V 0 H 0 Z"
         id="path41" /></clipPath><clipPath
       clipPathUnits="userSpaceOnUse"
       id="clipPath43"><path
         d="M 0,188.4 H 584.16 V 0 H 0 Z"
         id="path43" /></clipPath><clipPath
       clipPathUnits="userSpaceOnUse"
       id="clipPath45"><path
         d="M 0,188.4 H 584.16 V 0 H 0 Z"
         transform="translate(-333.04291,-140.4056)"
         id="path45" /></clipPath><clipPath
       clipPathUnits="userSpaceOnUse"
       id="clipPath47"><path
         d="M 0,188.4 H 584.16 V 0 H 0 Z"
         transform="translate(-322.10521,-137.4149)"
         id="path47" /></clipPath><clipPath
       clipPathUnits="userSpaceOnUse"
       id="clipPath49"><path
         d="M 0,188.4 H 584.16 V 0 H 0 Z"
         transform="translate(-316.20911,-135.9622)"
         id="path49" /></clipPath><clipPath
       clipPathUnits="userSpaceOnUse"
       id="clipPath51"><path
         d="M 0,188.4 H 584.16 V 0 H 0 Z"
         transform="translate(-313.21841,-119.983)"
         id="path51" /></clipPath><clipPath
       clipPathUnits="userSpaceOnUse"
       id="clipPath53"><path
         d="M 0,188.4 H 584.16 V 0 H 0 Z"
         transform="translate(-316.97811,-111.5233)"
         id="path53" /></clipPath><clipPath
       clipPathUnits="userSpaceOnUse"
       id="clipPath55"><path
         d="M 0,188.4 H 584.16 V 0 H 0 Z"
         transform="translate(-325.01051,-103.4055)"
         id="path55" /></clipPath><clipPath
       clipPathUnits="userSpaceOnUse"
       id="clipPath57"><path
         d="M 0,188.4 H 584.16 V 0 H 0 Z"
         transform="translate(-336.03371,-100.50021)"
         id="path57" /></clipPath><clipPath
       clipPathUnits="userSpaceOnUse"
       id="clipPath59"><path
         d="M 0,188.4 H 584.16 V 0 H 0 Z"
         transform="translate(-346.97131,-103.4055)"
         id="path59" /></clipPath><clipPath
       clipPathUnits="userSpaceOnUse"
       id="clipPath61"><path
         d="M 0,188.4 H 584.16 V 0 H 0 Z"
         transform="translate(-355.00371,-111.5233)"
         id="path61" /></clipPath><clipPath
       clipPathUnits="userSpaceOnUse"
       id="clipPath63"><path
         d="M 0,188.4 H 584.16 V 0 H 0 Z"
         transform="translate(-360.64341,-122.5465)"
         id="path63" /></clipPath><clipPath
       clipPathUnits="userSpaceOnUse"
       id="clipPath65"><path
         d="M 0,188.4 H 584.16 V 0 H 0 Z"
         transform="translate(-352.09841,-129.4679)"
         id="path65" /></clipPath><clipPath
       clipPathUnits="userSpaceOnUse"
       id="clipPath67"><path
         d="M 0,188.4 H 584.16 V 0 H 0 Z"
         transform="translate(-346.20231,-144.08)"
         id="path67" /></clipPath></defs><g
     inkscape:label="Vrstva 1"
     inkscape:groupmode="layer"
     id="layer1"><text
       xml:space="preserve"
       style="font-weight:bold;font-size:17.9714px;line-height:1.25;font-family:Montserrat;-inkscape-font-specification:'Montserrat Bold';letter-spacing:-0.949198px;word-spacing:0px;stroke-width:0.114889"
       x="-8.1717033"
       y="-344.89459"
       id="text3869"><tspan
         sodipodi:role="line"
         id="tspan3867"
         x="-8.1717033"
         y="-344.89459"
         style="font-style:normal;font-variant:normal;font-weight:800;font-stretch:normal;font-size:17.9714px;font-family:Montserrat;-inkscape-font-specification:'Montserrat Ultra-Bold';stroke-width:0.114889" /></text><g
       id="g2237"
       transform="translate(-270.58557,-17.521172)"><rect
         style="fill:#da5c57;fill-opacity:1;fill-rule:evenodd;stroke-width:0.489292;stroke-linecap:round;stroke-dashoffset:5.02677;paint-order:markers fill stroke;stop-color:#000000"
         id="rect2120"
         width="135.46666"
         height="135.46666"
         x="-406.0564"
         y="17.521175"
         ry="0.051306635"
         transform="scale(-1,1)" /><g
         id="g2227"
         transform="translate(0,2.5030982)"><g
           id="g2130"
           transform="translate(270.60477,19.069839)"><text
             xml:space="preserve"
             style="font-weight:bold;font-size:34.3849px;line-height:1.25;font-family:Montserrat;-inkscape-font-specification:'Montserrat Bold';letter-spacing:0px;word-spacing:0px;fill:#ffffff;fill-opacity:1;stroke-width:1.08002"
             x="10.861673"
             y="79.746597"
             id="text2124"><tspan
               sodipodi:role="line"
               x="10.861673"
               y="79.746597"
               style="font-style:normal;font-variant:normal;font-weight:800;font-stretch:normal;font-size:34.3849px;font-family:Montserrat;-inkscape-font-specification:'Montserrat Ultra-Bold';fill:#ffffff;fill-opacity:1;stroke-width:1.08002"
               id="tspan2122">Integr</tspan></text><text
             xml:space="preserve"
             style="font-weight:bold;font-size:34.3849px;line-height:1.25;font-family:Montserrat;-inkscape-font-specification:'Montserrat Bold';letter-spacing:0px;word-spacing:0px;fill:#ffffff;fill-opacity:1;stroke-width:1.08002"
             x="29.309305"
             y="115.9891"
             id="text2128"><tspan
               sodipodi:role="line"
               x="29.309305"
               y="115.9891"
               style="font-style:normal;font-variant:normal;font-weight:800;font-stretch:normal;font-size:34.3849px;font-family:Montserrat;-inkscape-font-specification:'Montserrat Ultra-Bold';fill:#ffffff;fill-opacity:1;stroke-width:1.08002"
               id="tspan2126">AGE</tspan></text></g><path
           style="fill:#ffffff;stroke-width:0.245322"
           d="m 300.40337,29.962512 c -3.02828,-0.0032 -6.07625,0.323355 -9.09764,0.973067 -0.28338,0.06404 -0.5585,0.126459 -0.83354,0.188619 -1.84412,0.415877 -3.55284,0.962779 -5.28753,1.716691 -0.38959,0.171768 -0.78009,0.340683 -1.17357,0.503329 -5.75529,2.335173 -4.65978,1.731482 -13.4229,7.503603 0.003,3.933476 -0.0258,7.935392 0.002,11.847479 0.92025,-0.586177 0.86637,-0.463117 1.77352,-1.073128 4.43308,-2.985652 8.9609,-5.916003 13.77745,-8.249109 7.23079,-3.395191 15.1157,-4.892532 22.83737,-2.110465 0.28649,0.106467 0.28658,0.106483 0.5674,0.210839 5.4229,1.856753 10.06206,5.238609 14.52987,8.756055 1.70326,1.341353 3.42839,2.649856 5.18314,3.923275 9.93606,7.128358 21.30958,10.239166 33.49925,8.260478 0.17455,-0.0296 0.34373,-0.05859 0.51315,-0.08733 7.2173,-1.181321 13.97731,-3.709355 20.653,-6.622851 3.27705,-1.431264 6.53854,-2.891858 9.94461,-3.995622 0.18983,-0.05979 0.37438,-0.11767 0.55862,-0.1757 1.02172,-0.324237 2.04296,-0.619134 3.09439,-0.830957 3.65691,-0.601125 5.50443,-0.779208 8.53519,0.410306 -4.9e-4,-3.584552 0.008,-6.784293 -0.003,-10.079671 -7.14498,-1.761657 -12.2116,-0.333133 -18.83924,2.830506 -0.44403,0.216021 -0.88975,0.427654 -1.33738,0.636137 -0.25739,0.118598 -0.50723,0.233706 -0.75706,0.348816 -1.40143,0.647975 -2.80846,1.283866 -4.2168,1.916679 -0.20492,0.09196 -0.40365,0.181008 -0.60255,0.270268 -0.20235,0.09082 -0.39891,0.179017 -0.59531,0.267167 -0.40867,0.182701 -0.81692,0.366252 -1.22473,0.550871 -4.14705,1.956784 -8.634,3.529345 -13.1625,4.320149 -0.29055,0.04827 -0.29037,0.04828 -0.57516,0.0956 -1.17474,0.197855 -2.3503,0.374821 -3.5326,0.521415 -12.74067,1.382146 -21.5375,-3.28742 -31.27303,-10.913546 -3.03395,-2.379062 -6.0883,-4.709542 -9.47539,-6.568591 -0.29194,-0.155414 -0.575,-0.305976 -0.85835,-0.45682 -5.97253,-3.276248 -12.53869,-4.880502 -19.20089,-4.887557 z"
           id="path2040"
           sodipodi:nodetypes="sccccccccccccccccccccccccsccccccccss" /></g></g></g></svg>
