<svg width="13" height="10" fill="none" viewBox="0 0 13 10" xmlns="http://www.w3.org/2000/svg"><path d="M11.175.034a1.774 1.774 0 0 0-.356.127c-.185.089-.277.178-2.973 2.869-1.53 1.527-2.818 2.795-2.863 2.818a.375.375 0 0 1-.305.012c-.038-.012-.57-.52-1.177-1.125-1.034-1.027-1.118-1.103-1.296-1.192a1.469 1.469 0 0 0-.698-.17A1.502 1.502 0 0 0 .213 5.649c.071.12.521.585 1.914 1.975 1.745 1.743 1.827 1.82 2.01 1.908.457.221.899.219 1.372-.013l.216-.104L9.15 5.992a370.53 370.53 0 0 0 3.524-3.547c.36-.467.427-1.06.176-1.588a1.507 1.507 0 0 0-1.675-.823Z" fill="#fff"/></svg>