<svg xmlns="http://www.w3.org/2000/svg" width="101" height="64" viewBox="0 0 101 64" fill="none" xmlns:v="https://vecta.io/nano"><g clip-path="url(#A)" fill="#252525"><path d="M46.928.011a68.01 68.01 0 0 0-4.142.48c-4.854.758-9.189 1.98-13.563 3.834a76.68 76.68 0 0 0-5.102 2.5c-3.677 2.056-7.678 4.88-10.456 7.38-2.718 2.445-6.537 6.385-8.219 8.481C3.526 25.08.879 28.975.192 30.415L0 30.82v.707.712l.258.53c.748 1.536 3.718 5.865 5.42 7.9 1.526 1.824 4.42 4.849 6.88 7.183l.485.46-.813.52-2.076 1.328-2.526 1.611c-2.046 1.303-2.521 1.632-2.814 1.945a4.22 4.22 0 0 0-1.056 1.97c-.091.369-.101.546-.081 1.096s.045.732.177 1.137c.258.788.732 1.475 1.364 1.975a4.21 4.21 0 0 0 3.703.788c.561-.146.823-.273 1.556-.743l4.198-2.677 1.177-.753 1.288-.818 1.172-.753 1.263-.808 1.187-.758 1.187-.758 2.096-1.339 4.496-2.869 1.162-.743 1.187-.758 1.263-.808 1.263-.808 1.187-.758 1.162-.743 2.728-1.743 3.233-2.061 4.824-3.081 1.819-1.162 1.263-.808 2.652-1.692 4.445-2.839 1.844-1.177 1.263-.808 1.187-.758 1.187-.758 1.818-1.162 1.819-1.162 2.096-1.339 2.652-1.692 1.819-1.162 1.187-.758 1.187-.758 1.263-.808 1.263-.808 1.187-.758 1.162-.743 4.496-2.869 2.096-1.339 1.819-1.162c2.44-1.556 2.692-1.753 3.152-2.49.5-.798.657-1.425.626-2.43-.02-.581-.046-.722-.187-1.142-.237-.697-.5-1.111-1.061-1.667-.394-.394-.571-.53-.94-.717-.672-.344-1.061-.45-1.748-.48-.636-.03-1.081.025-1.581.197-.53.182-.419.111-3.996 2.399L77.49 7.112c-.025 0-.48-.237-1.01-.53-4.748-2.617-9.972-4.511-15.483-5.617-2.642-.53-4.188-.702-8.133-.889a138.82 138.82 0 0 0-5.936-.071zm6.037 6.335c4.859.293 9.017 1.147 13.462 2.753 1.622.586 4.774 1.935 4.774 2.041 0 .03-.394.283-3.359 2.177l-4.395 2.809c-.581.374-1.076.677-1.096.677s-.278-.197-.581-.439c-.839-.672-1.662-1.187-2.768-1.733-2.031-1.005-3.885-1.571-6.239-1.894-.803-.116-3.031-.157-3.95-.081-3.329.288-6.597 1.51-9.254 3.47-3.182 2.344-5.567 5.466-6.89 9.012-.773 2.076-1.02 3.627-1.02 6.42 0 1.758.162 3.597.379 4.319.04.136.056.263.035.283s-.525.349-1.121.727l-7.072 4.516-3.006 1.92-1.657 1.056-.49.318-.192-.141a78.91 78.91 0 0 1-2.41-2.137c-2.601-2.455-5.4-5.577-7.461-8.315-.904-1.207-1.819-2.546-1.778-2.617a84.75 84.75 0 0 1 1.859-2.662c1.637-2.207 3.526-4.329 6.264-7.042 5.112-5.067 9.835-8.396 15.922-11.234a46.77 46.77 0 0 1 16.21-4.152l1.035-.066a89.87 89.87 0 0 1 4.799.015zM51.974 19c1.313.151 2.672.54 3.794 1.086.914.439.899.369.167.834l-1.303.833-1.541.985-1.566 1-1.793 1.147-2.349 1.5-7.148 4.561-1.404.899-.894.566c-.005 0-.03-.187-.045-.419-.045-.52.04-1.738.172-2.521a12.66 12.66 0 0 1 2.632-5.794 16.82 16.82 0 0 1 2.278-2.218c1.839-1.374 3.95-2.228 6.153-2.48a17.94 17.94 0 0 1 2.849.02zm37.785-1.728l-1.086.697-1.94 1.243-1.637 1.051-.379.242.707.687c2.692 2.632 5.223 5.471 6.976 7.835.838 1.132 1.743 2.475 1.717 2.546-.035.091-.904 1.359-1.419 2.076-1.566 2.177-3.521 4.455-5.839 6.814-4.981 5.057-9.426 8.386-14.851 11.113a48.63 48.63 0 0 1-18.438 5.142 75.55 75.55 0 0 1-6.239 0c-4.612-.349-9.345-1.394-13.462-2.975l-.733-.283-.177.101c-.096.056-.788.495-1.541.975l-1.894 1.212-1.187.758-1.147.727c-.273.172-.495.323-.495.338 0 .03.046.05 1.642.778 3.309 1.51 7.456 2.869 11.108 3.637 4.203.884 6.521 1.081 12.154 1.02 4.177-.046 5.642-.177 8.865-.793 4.324-.828 8.577-2.172 12.401-3.925 10.047-4.597 19.403-12.684 26.025-22.494 1.955-2.895 2.309-3.748 2.021-4.89-.197-.763-.561-1.435-1.793-3.288-2.288-3.435-4.369-6.036-7.032-8.789-1.283-1.329-1.788-1.824-1.854-1.819-.035 0-.248.121-.475.263zm-20.68 13.22l-3.208 2.046-3.036 1.96c-.035.035-.116.268-.187.525-.389 1.369-1.268 3.031-2.268 4.289-1.899 2.394-4.89 4.228-7.572 4.652-.48.076-.874.091-2.344.086-1.026 0-1.914-.025-2.117-.061l-.349-.056-.283.192-.763.495-1.137.722-1.187.758-1.339.859-1.334.849c-.616.389-.647.318.323.793 1.839.899 3.667 1.429 5.961 1.728.879.111 3.748.131 4.521.025l2.349-.419c3.556-.889 6.703-2.834 9.461-5.855 2.137-2.334 3.44-4.713 4.299-7.845.338-1.233.46-2.45.465-4.541l-.015-1.328c-.01-.01-.121.046-.243.126z" fill-opacity=".5"/></g><defs><clipPath id="A"><path fill="#fff" d="M0 0h101v63.016H0z"/></clipPath></defs></svg>