<svg xmlns="http://www.w3.org/2000/svg" width="101" height="64" viewBox="0 0 101 64" fill="none" xmlns:v="https://vecta.io/nano"><g clip-path="url(#A)" fill="#252525"><path d="M46.928.011c-.798.051-3.036.308-4.142.48-4.854.758-9.189 1.98-13.563 3.834a76.68 76.68 0 0 0-5.102 2.5c-3.677 2.056-7.678 4.88-10.456 7.38-2.718 2.445-6.537 6.385-8.219 8.481C3.526 25.08.879 28.975.192 30.415L0 30.82v.707.712l.258.53c.748 1.536 3.718 5.865 5.42 7.9 2.536 3.031 7.244 7.703 9.881 9.805 4.753 3.789 9.865 6.789 15.053 8.835 2.859 1.132 5.981 2.076 8.835 2.677 4.203.884 6.521 1.081 12.154 1.02 4.178-.046 5.642-.177 8.865-.793 4.324-.828 8.577-2.172 12.401-3.925 10.047-4.597 19.403-12.684 26.025-22.494 1.955-2.895 2.309-3.748 2.021-4.89-.197-.763-.561-1.435-1.793-3.288-2.642-3.971-4.753-6.526-8.446-10.229-4.521-4.536-9.234-8.108-14.422-10.926C71.564 3.91 66.412 2.056 60.997.97 58.355.44 56.809.268 52.864.081A138.82 138.82 0 0 0 46.928.01zm6.037 6.335c4.839.293 9.032 1.152 13.447 2.748 5.38 1.95 10.664 4.966 15.266 8.719 3.031 2.47 6.986 6.506 9.714 9.901 1.096 1.369 2.773 3.738 2.728 3.859-.035.091-.904 1.359-1.419 2.076-1.566 2.177-3.521 4.455-5.839 6.814-4.981 5.057-9.426 8.386-14.851 11.113-5.855 2.95-11.926 4.642-18.438 5.142a75.55 75.55 0 0 1-6.239 0 47.97 47.97 0 0 1-17.655-4.799c-4.657-2.278-9.476-5.658-13.563-9.502a70.6 70.6 0 0 1-7.461-8.315c-.904-1.207-1.819-2.546-1.778-2.617a84.75 84.75 0 0 1 1.859-2.662c1.637-2.207 3.526-4.329 6.264-7.042 5.112-5.067 9.835-8.396 15.922-11.234a46.77 46.77 0 0 1 16.21-4.152l1.035-.066a89.87 89.87 0 0 1 4.799.015zm-4.319 6.314c-1.071.111-2.617.429-3.789.783-2.192.662-4.546 1.96-6.289 3.46-3.288 2.834-5.289 5.88-6.39 9.739-.379 1.339-.53 2.733-.53 4.915 0 2.142.157 3.581.535 4.88 1.005 3.47 2.637 6.168 5.284 8.729 3.092 2.996 6.441 4.597 10.775 5.163.879.111 3.748.131 4.521.025 1.915-.253 3.294-.606 4.809-1.227 3.809-1.561 7.537-4.905 9.598-8.618.919-1.652 1.778-4.066 1.985-5.587.232-1.723.253-4.476.045-6.4-.197-1.864-1.273-4.743-2.581-6.905-1-1.657-2.819-3.627-4.839-5.243a14.12 14.12 0 0 0-2.778-1.743c-2.031-1.005-3.864-1.561-6.239-1.899a33.78 33.78 0 0 0-4.117-.071zM51.974 19c2.778.323 5.243 1.541 7.38 3.642 1.718 1.687 3.061 4.056 3.455 6.092.187.945.232 1.541.227 2.869 0 1.803-.147 2.778-.591 4.041-.409 1.152-1.283 2.703-2.096 3.708-.465.581-1.409 1.526-1.98 1.985-1.692 1.364-3.753 2.344-5.511 2.617-1.157.177-4.051.147-5.031-.055-1.126-.232-2.713-.889-3.869-1.601-1.51-.934-3.132-2.526-4.142-4.076-1.626-2.495-2.268-5.713-1.753-8.744.359-2.107 1.273-4.112 2.632-5.799.51-.636 1.662-1.758 2.278-2.218 1.839-1.374 3.95-2.228 6.153-2.48a17.94 17.94 0 0 1 2.849.02z" fill-opacity=".5"/></g><defs><clipPath id="A"><path fill="#fff" d="M0 0h101v63.016H0z"/></clipPath></defs></svg>