<svg xmlns="http://www.w3.org/2000/svg" xml:space="preserve" id="svg2566" viewBox="157.768 161.53846153846155 3532.464 403.8461538461538" version="1.1" style="max-height: 500px" width="3532.464" height="403.8461538461538"><defs id="defs2570"><clipPath id="clipPath7" clipPathUnits="userSpaceOnUse"><path id="path7" transform="translate(-41.971201,-138.0822)" d="M 0,188.4 H 584.16 V 0 H 0 Z"/></clipPath><clipPath id="clipPath9" clipPathUnits="userSpaceOnUse"><path id="path9" transform="translate(-94.511605,-121.6452)" d="M 0,188.4 H 584.16 V 0 H 0 Z"/></clipPath><clipPath id="clipPath11" clipPathUnits="userSpaceOnUse"><path id="path11" transform="translate(-121.07361,-122.6412)" d="M 0,188.4 H 584.16 V 0 H 0 Z"/></clipPath><clipPath id="clipPath13" clipPathUnits="userSpaceOnUse"><path id="path13" transform="translate(-157.16151,-120.3503)" d="M 0,188.4 H 584.16 V 0 H 0 Z"/></clipPath><clipPath id="clipPath15" clipPathUnits="userSpaceOnUse"><path id="path15" transform="translate(-182.9586,-120.5993)" d="M 0,188.4 H 584.16 V 0 H 0 Z"/></clipPath><clipPath id="clipPath17" clipPathUnits="userSpaceOnUse"><path id="path17" transform="translate(-201.7336,-122.6412)" d="M 0,188.4 H 584.16 V 0 H 0 Z"/></clipPath><clipPath id="clipPath19" clipPathUnits="userSpaceOnUse"><path id="path19" transform="translate(-228.65751,-115.3647)" d="M 0,188.4 H 584.16 V 0 H 0 Z"/></clipPath><clipPath id="clipPath21" clipPathUnits="userSpaceOnUse"><path id="path21" transform="translate(-61.592902,-121.539)" d="M 0,188.4 H 584.16 V 0 H 0 Z"/></clipPath><clipPath id="clipPath23" clipPathUnits="userSpaceOnUse"><path id="path23" transform="translate(-42.028201,-98.985602)" d="M 0,188.4 H 584.16 V 0 H 0 Z"/></clipPath><clipPath id="clipPath25" clipPathUnits="userSpaceOnUse"><path id="path25" transform="translate(-94.760605,-98.487602)" d="M 0,188.4 H 584.16 V 0 H 0 Z"/></clipPath><clipPath id="clipPath27" clipPathUnits="userSpaceOnUse"><path id="path27" transform="translate(-106.3144,-113.7766)" d="M 0,188.4 H 584.16 V 0 H 0 Z"/></clipPath><clipPath id="clipPath29" clipPathUnits="userSpaceOnUse"><path id="path29" transform="translate(-150.4881,-98.985602)" d="M 0,188.4 H 584.16 V 0 H 0 Z"/></clipPath><clipPath id="clipPath31" clipPathUnits="userSpaceOnUse"><path id="path31" transform="translate(-173.8449,-98.985602)" d="M 0,188.4 H 584.16 V 0 H 0 Z"/></clipPath><clipPath id="clipPath33" clipPathUnits="userSpaceOnUse"><path id="path33" transform="translate(-186.843,-113.7766)" d="M 0,188.4 H 584.16 V 0 H 0 Z"/></clipPath><clipPath id="clipPath35" clipPathUnits="userSpaceOnUse"><path id="path35" transform="translate(-220.16011,-115.42)" d="M 0,188.4 H 584.16 V 0 H 0 Z"/></clipPath><clipPath id="clipPath37" clipPathUnits="userSpaceOnUse"><path id="path37" transform="translate(-69.909701,-115.4698)" d="M 0,188.4 H 584.16 V 0 H 0 Z"/></clipPath><clipPath id="clipPath39" clipPathUnits="userSpaceOnUse"><path id="path39" transform="translate(-49.590801,-113.7766)" d="M 0,188.4 H 584.16 V 0 H 0 Z"/></clipPath><clipPath id="clipPath41" clipPathUnits="userSpaceOnUse"><path id="path41" d="M 0,188.4 H 584.16 V 0 H 0 Z"/></clipPath><clipPath id="clipPath43" clipPathUnits="userSpaceOnUse"><path id="path43" d="M 0,188.4 H 584.16 V 0 H 0 Z"/></clipPath><clipPath id="clipPath45" clipPathUnits="userSpaceOnUse"><path id="path45" transform="translate(-333.04291,-140.4056)" d="M 0,188.4 H 584.16 V 0 H 0 Z"/></clipPath><clipPath id="clipPath47" clipPathUnits="userSpaceOnUse"><path id="path47" transform="translate(-322.10521,-137.4149)" d="M 0,188.4 H 584.16 V 0 H 0 Z"/></clipPath><clipPath id="clipPath49" clipPathUnits="userSpaceOnUse"><path id="path49" transform="translate(-316.20911,-135.9622)" d="M 0,188.4 H 584.16 V 0 H 0 Z"/></clipPath><clipPath id="clipPath51" clipPathUnits="userSpaceOnUse"><path id="path51" transform="translate(-313.21841,-119.983)" d="M 0,188.4 H 584.16 V 0 H 0 Z"/></clipPath><clipPath id="clipPath53" clipPathUnits="userSpaceOnUse"><path id="path53" transform="translate(-316.97811,-111.5233)" d="M 0,188.4 H 584.16 V 0 H 0 Z"/></clipPath><clipPath id="clipPath55" clipPathUnits="userSpaceOnUse"><path id="path55" transform="translate(-325.01051,-103.4055)" d="M 0,188.4 H 584.16 V 0 H 0 Z"/></clipPath><clipPath id="clipPath57" clipPathUnits="userSpaceOnUse"><path id="path57" transform="translate(-336.03371,-100.50021)" d="M 0,188.4 H 584.16 V 0 H 0 Z"/></clipPath><clipPath id="clipPath59" clipPathUnits="userSpaceOnUse"><path id="path59" transform="translate(-346.97131,-103.4055)" d="M 0,188.4 H 584.16 V 0 H 0 Z"/></clipPath><clipPath id="clipPath61" clipPathUnits="userSpaceOnUse"><path id="path61" transform="translate(-355.00371,-111.5233)" d="M 0,188.4 H 584.16 V 0 H 0 Z"/></clipPath><clipPath id="clipPath63" clipPathUnits="userSpaceOnUse"><path id="path63" transform="translate(-360.64341,-122.5465)" d="M 0,188.4 H 584.16 V 0 H 0 Z"/></clipPath><clipPath id="clipPath65" clipPathUnits="userSpaceOnUse"><path id="path65" transform="translate(-352.09841,-129.4679)" d="M 0,188.4 H 584.16 V 0 H 0 Z"/></clipPath><clipPath id="clipPath67" clipPathUnits="userSpaceOnUse"><path id="path67" transform="translate(-346.20231,-144.08)" d="M 0,188.4 H 584.16 V 0 H 0 Z"/></clipPath></defs><text id="text3847" y="514.27771" x="159.5515" style="font-weight:bold;font-size:189.333px;line-height:1.25;font-family:Montserrat;-inkscape-font-specification:'Montserrat Bold';letter-spacing:-10px;word-spacing:0px;fill:#003399;fill-opacity:1;stroke-width:1.21038" xml:space="preserve"><tspan style="font-style:normal;font-variant:normal;font-weight:bold;font-stretch:normal;font-size:189.333px;font-family:Montserrat;-inkscape-font-specification:'Montserrat Bold';fill:#003399;fill-opacity:1;stroke-width:1.21038" y="514.27771" x="159.5515" id="tspan3845">Danube Region</tspan></text><text id="text3863" y="331.07541" x="2423.2148" style="font-weight:bold;font-size:133.333px;line-height:1.15;font-family:Montserrat;-inkscape-font-specification:'Montserrat Bold';letter-spacing:-0.48px;word-spacing:0px;fill:#003398;fill-opacity:1" xml:space="preserve"><tspan style="font-style:normal;font-variant:normal;font-weight:bold;font-stretch:normal;font-size:133.333px;font-family:Arial;-inkscape-font-specification:'Arial Bold';fill:#003398;fill-opacity:1" y="331.07541" x="2423.2148" id="tspan3861">Co-funded by</tspan><tspan style="font-style:normal;font-variant:normal;font-weight:bold;font-stretch:normal;font-size:133.333px;font-family:Arial;-inkscape-font-specification:'Arial Bold';fill:#003398;fill-opacity:1" id="tspan3865" y="486.85355" x="2423.2148">the European Union</tspan></text><path clip-path="url(#clipPath43)" transform="matrix(5.5978125,0,0,-5.5978125,177.74694,1044.0207)" style="fill:#003398;fill-opacity:1;fill-rule:nonzero;stroke:none" d="M 285.062,155.018 H 385.637 V 88.025 H 285.062 Z" id="path42"/><path clip-path="url(#clipPath45)" transform="matrix(5.5978125,0,0,-5.5978125,2042.0587,258.0563)" style="fill:#f6c605;fill-opacity:1;fill-rule:nonzero;stroke:none" d="M 0,0 2.136,1.538 4.273,0 3.503,2.478 5.64,4.016 H 2.991 L 2.136,6.58 1.367,4.016 H -1.282 L 0.854,2.478 Z" id="path44"/><path clip-path="url(#clipPath47)" transform="matrix(5.5978125,0,0,-5.5978125,1980.8315,274.7977)" style="fill:#f6c605;fill-opacity:1;fill-rule:nonzero;stroke:none" d="M 0,0 2.136,1.624 4.273,0 3.418,2.564 5.554,4.102 H 2.905 L 2.136,6.665 1.282,4.102 H -1.367 L 0.769,2.564 Z" id="path46"/><path clip-path="url(#clipPath49)" transform="matrix(5.5978125,0,0,-5.5978125,1947.8261,282.9299)" style="fill:#f6c605;fill-opacity:1;fill-rule:nonzero;stroke:none" d="m 0,0 -0.854,-2.478 h -2.65 L -1.367,-4.016 -2.136,-6.58 0,-5.042 2.136,-6.58 1.282,-4.016 3.418,-2.478 H 0.769 Z" id="path48"/><path clip-path="url(#clipPath51)" transform="matrix(5.5978125,0,0,-5.5978125,1931.0847,372.3784)" style="fill:#f6c605;fill-opacity:1;fill-rule:nonzero;stroke:none" d="M 0,0 2.136,-1.538 1.367,0.94 3.503,2.478 H 0.855 L 0,5.042 -0.769,2.478 H -3.418 L -1.282,0.94 -2.136,-1.538 Z" id="path50"/><path clip-path="url(#clipPath53)" transform="matrix(5.5978125,0,0,-5.5978125,1952.1311,419.7343)" style="fill:#f6c605;fill-opacity:1;fill-rule:nonzero;stroke:none" d="M 0,0 -0.769,2.478 -1.624,0 h -2.649 l 2.137,-1.624 -0.769,-2.478 2.136,1.538 L 1.367,-4.102 0.513,-1.624 2.649,0 Z" id="path52"/><path clip-path="url(#clipPath55)" transform="matrix(5.5978125,0,0,-5.5978125,1997.0946,465.176)" style="fill:#f6c605;fill-opacity:1;fill-rule:nonzero;stroke:none" d="M 0,0 -0.769,2.564 -1.624,0 h -2.649 l 2.222,-1.538 -0.854,-2.478 2.136,1.538 L 1.367,-4.016 0.513,-1.538 2.734,0 Z" id="path54"/><path clip-path="url(#clipPath57)" transform="matrix(5.5978125,0,0,-5.5978125,2058.8005,481.4392)" style="fill:#f6c605;fill-opacity:1;fill-rule:nonzero;stroke:none" d="M 0,0 -0.854,2.564 -1.624,0 h -2.649 l 2.137,-1.538 -0.855,-2.478 2.137,1.538 L 1.282,-4.016 0.513,-1.538 2.649,0 Z" id="path56"/><path clip-path="url(#clipPath59)" transform="matrix(5.5978125,0,0,-5.5978125,2120.0272,465.176)" style="fill:#f6c605;fill-opacity:1;fill-rule:nonzero;stroke:none" d="M 0,0 -0.769,2.564 -1.624,0 h -2.649 l 2.137,-1.538 -0.769,-2.478 2.136,1.538 L 1.282,-4.016 0.513,-1.538 2.649,0 Z" id="path58"/><path clip-path="url(#clipPath61)" transform="matrix(5.5978125,0,0,-5.5978125,2164.9912,419.7343)" style="fill:#f6c605;fill-opacity:1;fill-rule:nonzero;stroke:none" d="M 0,0 -0.769,2.478 -1.624,0 h -2.649 l 2.137,-1.624 -0.769,-2.478 2.136,1.538 L 1.367,-4.102 0.513,-1.624 2.649,0 Z" id="path60"/><path clip-path="url(#clipPath63)" transform="matrix(5.5978125,0,0,-5.5978125,2196.5612,358.0285)" style="fill:#f6c605;fill-opacity:1;fill-rule:nonzero;stroke:none" d="M 0,0 H -2.734 L -3.504,2.478 -4.358,0 h -2.649 l 2.136,-1.538 -0.769,-2.564 2.136,1.538 2.137,-1.538 -0.855,2.564 z" id="path62"/><path clip-path="url(#clipPath65)" transform="matrix(5.5978125,0,0,-5.5978125,2148.7276,319.2835)" style="fill:#f6c605;fill-opacity:1;fill-rule:nonzero;stroke:none" d="M 0,0 2.136,1.538 4.273,0 3.418,2.478 5.554,4.016 H 2.905 L 2.136,6.58 1.282,4.016 H -1.367 L 0.769,2.478 Z" id="path64"/><path clip-path="url(#clipPath67)" transform="matrix(5.5978125,0,0,-5.5978125,2115.7227,237.4877)" style="fill:#f6c605;fill-opacity:1;fill-rule:nonzero;stroke:none" d="M 0,0 -0.855,-2.564 H -3.503 L -1.282,-4.102 -2.136,-6.665 0,-5.042 2.136,-6.665 1.282,-4.102 3.503,-2.564 H 0.769 Z" id="path66"/><path clip-path="url(#clipPath7)" transform="matrix(3.4461503,0,0,-3.4461503,213.3304,190.7226)" style="fill:#9faee5;fill-opacity:1;fill-rule:nonzero;stroke:none" d="m 0,0 h -8.566 v -26.476 c 2.789,0.548 5.678,1.046 8.616,1.544 L 0.05,0 Z" id="path6"/><path clip-path="url(#clipPath9)" transform="matrix(3.4461503,0,0,-3.4461503,394.39253,247.367)" style="fill:#9faee5;fill-opacity:1;fill-rule:nonzero;stroke:none" d="M 0,0 H 7.022 V 7.271 H 0 V 14.94 H -8.466 V 7.271 h -3.586 V 0 h 3.586 v -3.287 c 2.789,0.199 5.627,0.399 8.466,0.598 z" id="path8"/><path clip-path="url(#clipPath11)" transform="matrix(3.4461503,0,0,-3.4461503,485.92917,243.9346)" style="fill:#9faee5;fill-opacity:1;fill-rule:nonzero;stroke:none" d="m 0,0 c 2.092,0 3.767,-0.896 4.863,-2.341 2.838,0.05 5.677,0.1 8.516,0.15 C 11.436,3.038 6.972,6.823 0,6.823 c -6.624,0 -11.693,-4.084 -13.784,-9.811 2.888,0.149 5.816,0.249 8.754,0.349 C -3.884,-0.946 -2.191,0 0,0" id="path10"/><path clip-path="url(#clipPath13)" transform="matrix(3.4461503,0,0,-3.4461503,610.2935,251.8294)" style="fill:#9faee5;fill-opacity:1;fill-rule:nonzero;stroke:none" d="M 0,0 C 0.747,0.149 1.594,0.249 2.44,0.249 H 2.888 V 9.114 C -2.141,9.313 -4.93,6.673 -6.673,2.54 V 8.566 H -15.14 V 0.149 h 0.449 C -9.761,0.149 -4.831,0.1 0,0" id="path12"/><path clip-path="url(#clipPath15)" transform="matrix(3.4461503,0,0,-3.4461503,699.19418,250.9713)" style="fill:#9faee5;fill-opacity:1;fill-rule:nonzero;stroke:none" d="M 0,0 H 0.448 V 8.865 C -4.582,9.064 -7.371,6.424 -9.114,2.291 v 6.026 h -8.466 v -8.765 c 4.432,-0.15 8.765,-0.299 13.098,-0.498 C -3.237,-0.299 -1.743,0 0,0" id="path14"/><path clip-path="url(#clipPath17)" transform="matrix(3.4461503,0,0,-3.4461503,763.89565,243.9346)" style="fill:#9faee5;fill-opacity:1;fill-rule:nonzero;stroke:none" d="m 0,0 c 3.137,0 5.229,-1.992 6.026,-5.03 2.789,-0.249 5.528,-0.548 8.217,-0.797 -1.145,6.972 -5.727,12.65 -14.293,12.65 -6.823,0 -12.11,-4.391 -14.003,-10.368 2.739,-0.149 5.484,-0.348 8.173,-0.547 C -4.785,-1.602 -2.739,0 0,0" id="path16"/><path clip-path="url(#clipPath19)" transform="matrix(3.4461503,0,0,-3.4461503,856.67947,269.0105)" style="fill:#9faee5;fill-opacity:1;fill-rule:nonzero;stroke:none" d="M 0,0 V 0.08 0.1 c 0,4.083 3.137,6.922 7.271,6.922 4.133,0 7.321,-2.839 7.321,-6.922 V 0 c 0,-0.797 -0.1,-1.544 -0.349,-2.191 2.988,-0.498 5.895,-0.996 8.734,-1.544 L 22.958,13.546 H 14.492 V 9.661 c -2.291,2.49 -5.03,4.483 -9.661,4.483 C -1.793,14.144 -8.018,9.356 -8.416,0.939 -5.578,0.591 -2.779,0.304 0.01,-0.044 0.002,-0.011 0.008,-0.052 0,0" id="path18"/><path clip-path="url(#clipPath21)" transform="matrix(3.4461503,0,0,-3.4461503,280.94973,247.733)" style="fill:#9faee5;fill-opacity:1;fill-rule:nonzero;stroke:none" d="m 0,0 c 0.548,0.249 1.793,0.548 2.39,0.548 0.598,0 1.843,-0.249 2.391,-0.548 2.141,-1.046 3.137,-2.54 3.436,-4.681 2.689,0.299 5.429,0.548 8.168,0.797 C 15.438,0.448 12.849,4.134 8.815,6.175 6.972,7.122 4.831,7.869 2.39,7.869 c -2.44,0 -4.581,-0.747 -6.424,-1.694 -5.03,-2.539 -7.819,-7.619 -7.968,-13.396 2.789,0.398 5.578,0.797 8.466,1.145 0,2.889 0.897,4.831 3.536,6.076" id="path20"/><path clip-path="url(#clipPath23)" transform="matrix(3.4461503,0,0,-3.4461503,213.52683,325.4554)" style="fill:#003399;fill-opacity:1;fill-rule:nonzero;stroke:none" d="M 0,0 V 14.193 C -2.938,13.695 -5.777,13.197 -8.616,12.65 V 0 Z" id="path22"/><path clip-path="url(#clipPath25)" transform="matrix(3.4461503,0,0,-3.4461503,395.25062,327.1716)" style="fill:#003399;fill-opacity:1;fill-rule:nonzero;stroke:none" d="M 0,0 C 2.839,0 4.93,0.647 6.673,1.743 V 8.566 C 5.428,7.918 4.034,7.52 2.49,7.52 c -1.892,0 -2.739,0.946 -2.739,2.888 v 10.11 C -3.088,20.319 -5.926,20.12 -8.715,19.92 V 9.014 C -8.715,2.092 -5.179,0 0,0" id="path24"/><path clip-path="url(#clipPath27)" transform="matrix(3.4461503,0,0,-3.4461503,435.06673,274.4834)" style="fill:#003399;fill-opacity:1;fill-rule:nonzero;stroke:none" d="m 0,0 c 0,-9.163 6.673,-15.438 15.687,-15.438 5.429,0 9.413,2.141 12.202,5.577 l -4.831,4.283 c -2.341,-2.191 -4.432,-3.087 -7.271,-3.087 -3.785,0 -6.474,1.992 -7.321,5.876 h 20.817 c 0.05,0.797 0.1,1.544 0.1,2.241 0,2.54 -0.399,4.98 -1.245,7.221 C 25.299,6.624 22.46,6.624 19.622,6.524 20.419,5.478 20.917,4.084 21.116,2.54 H 8.317 C 8.566,3.984 9.064,5.279 9.761,6.275 6.823,6.175 3.885,6.076 0.996,5.926 0.349,4.133 0,2.191 0,0.149 Z" id="path26"/><path clip-path="url(#clipPath29)" transform="matrix(3.4461503,0,0,-3.4461503,587.29596,325.4554)" style="fill:#003399;fill-opacity:1;fill-rule:nonzero;stroke:none" d="m 0,0 v 11.056 c 0,6.026 2.49,9.412 6.624,10.309 -4.831,0.099 -9.761,0.149 -14.642,0.149 H -8.466 V 0.05 H 0 Z" id="path28"/><path clip-path="url(#clipPath31)" transform="matrix(3.4461503,0,0,-3.4461503,667.787,325.4554)" style="fill:#003399;fill-opacity:1;fill-rule:nonzero;stroke:none" d="m 0,0 v 11.056 c 0,4.98 1.693,8.117 4.632,9.612 -4.333,0.199 -8.666,0.348 -13.098,0.498 L -8.466,0 Z" id="path30"/><path clip-path="url(#clipPath33)" transform="matrix(3.4461503,0,0,-3.4461503,712.58041,274.4834)" style="fill:#003399;fill-opacity:1;fill-rule:nonzero;stroke:none" d="m 0,0 c 0,-9.163 6.723,-15.438 15.737,-15.438 5.429,0 9.413,2.141 12.202,5.577 l -4.831,4.283 c -2.341,-2.191 -4.433,-3.087 -7.271,-3.087 -3.785,0 -6.474,1.992 -7.321,5.876 h 20.817 c 0.05,0.797 0.1,1.544 0.1,2.241 0,1.195 -0.1,2.391 -0.299,3.586 -2.69,0.299 -5.429,0.548 -8.217,0.797 0.099,-0.399 0.199,-0.847 0.249,-1.345 H 8.367 C 8.516,3.337 8.715,4.084 9.014,4.781 6.325,4.98 3.586,5.179 0.847,5.329 0.299,3.685 0,1.942 0,0.1 Z" id="path32"/><path clip-path="url(#clipPath35)" transform="matrix(3.4461503,0,0,-3.4461503,827.39615,268.82)" style="fill:#003399;fill-opacity:1;fill-rule:nonzero;stroke:none" d="m 0,0 c 0,-8.865 6.325,-13.944 13.297,-13.944 4.532,0 7.271,1.842 9.761,4.88 v -1.444 c 0,-5.379 -2.739,-8.167 -8.516,-8.167 -3.984,0 -7.022,0.996 -10.11,2.739 l -2.888,-6.375 c 3.785,-1.992 8.366,-3.137 13.247,-3.137 5.827,0 10.11,1.245 12.899,4.033 2.49,2.491 3.784,6.425 3.784,11.754 v 5.926 c -2.838,0.548 -5.727,1.046 -8.715,1.544 -0.946,-2.839 -3.635,-4.731 -6.972,-4.731 -4.084,0 -7.221,2.739 -7.271,6.822 C 5.727,0.249 2.938,0.598 0.05,0.946 0.05,0.647 0,0.398 0,0.1 Z" id="path34"/><path clip-path="url(#clipPath37)" transform="matrix(3.4461503,0,0,-3.4461503,309.61067,268.6483)" style="fill:#003399;fill-opacity:1;fill-rule:nonzero;stroke:none" d="m 0,0 v -2.888 -12.451 -1.095 h 8.466 v 14.791 0.099 c 0,1.295 -0.149,2.59 -0.398,3.785 C 5.329,1.992 2.59,1.743 -0.1,1.444 -0.05,0.996 0,0.498 0,0" id="path36"/><path clip-path="url(#clipPath39)" transform="matrix(3.4461503,0,0,-3.4461503,239.58869,274.4834)" style="fill:#003399;fill-opacity:1;fill-rule:nonzero;stroke:none" d="m 0,0 v -14.791 h 8.466 v 1.096 12.45 2.888 0.05 C 5.578,1.345 2.789,0.946 0,0.548 V 0.1 Z" id="path38"/><text id="text3869" y="-1650.0107" x="41.28545" style="font-weight:bold;font-size:189.333px;line-height:1.25;font-family:Montserrat;-inkscape-font-specification:'Montserrat Bold';letter-spacing:-10px;word-spacing:0px;stroke-width:1.21038" xml:space="preserve"><tspan style="font-style:normal;font-variant:normal;font-weight:800;font-stretch:normal;font-size:189.333px;font-family:Montserrat;-inkscape-font-specification:'Montserrat Ultra-Bold';stroke-width:1.21038" y="-1650.0107" x="41.28545" id="tspan3867"/></text></svg>