<?xml version="1.0" encoding="UTF-8" standalone="no"?>
<svg
   version="1.1"
   width="1912.6154"
   height="664.47015"
   viewBox="0 0 1912.6154 664.47015"
   id="svg1249"
   sodipodi:docname="IntegrAGE_B_Integrage.svg"
   inkscape:version="1.2.2 (732a01da63, 2022-12-09)"
   xmlns:inkscape="http://www.inkscape.org/namespaces/inkscape"
   xmlns:sodipodi="http://sodipodi.sourceforge.net/DTD/sodipodi-0.dtd"
   xmlns="http://www.w3.org/2000/svg"
   xmlns:svg="http://www.w3.org/2000/svg">
  <defs
     id="defs1253" />
  <sodipodi:namedview
     id="namedview1251"
     pagecolor="#ffffff"
     bordercolor="#999999"
     borderopacity="1"
     inkscape:showpageshadow="0"
     inkscape:pageopacity="0"
     inkscape:pagecheckerboard="0"
     inkscape:deskcolor="#d1d1d1"
     showgrid="false"
     inkscape:zoom="0.39527027"
     inkscape:cx="818.42735"
     inkscape:cy="-83.487179"
     inkscape:window-width="1920"
     inkscape:window-height="1017"
     inkscape:window-x="-8"
     inkscape:window-y="-8"
     inkscape:window-maximized="1"
     inkscape:current-layer="svg1249">
    <inkscape:grid
       type="xygrid"
       id="grid1387"
       originx="1760.176"
       originy="-39.993036" />
  </sodipodi:namedview>
  <g
     id="g1979">
    <text
       xml:space="preserve"
       style="font-weight:bold;font-size:128.208px;line-height:1.25;font-family:Montserrat;-inkscape-font-specification:'Montserrat Bold';letter-spacing:0px;word-spacing:0px;stroke-width:4.02699;fill:#da5c57;fill-opacity:1"
       x="156.36595"
       y="475.1391"
       id="text1131"><tspan
         sodipodi:role="line"
         id="tspan1129"
         x="156.36595"
         y="475.1391"
         style="font-style:normal;font-variant:normal;font-weight:800;font-stretch:normal;font-size:128.208px;font-family:Montserrat;-inkscape-font-specification:'Montserrat Ultra-Bold';stroke-width:4.02699;fill:#da5c57;fill-opacity:1">IntegrAGE</tspan></text>
    <path
       d="m 637.30768,178.47008 c 1.155,0.61488 2.31,1.22977 3.5,1.86328 13.80672,7.57801 26.25631,17.07717 38.62353,26.7749 39.68473,31.08623 75.54255,50.12084 127.47706,44.48682 4.81939,-0.59756 9.61082,-1.31848 14.39941,-2.125 1.16088,-0.19288 1.16088,-0.19288 2.34521,-0.38965 18.45949,-3.22354 36.75026,-9.63395 53.65479,-17.61035 1.66232,-0.75256 3.32635,-1.50135 4.99219,-2.24609 0.80059,-0.35933 1.60117,-0.71866 2.42602,-1.08887 0.81074,-0.36384 1.62148,-0.72768 2.45679,-1.10254 5.74079,-2.57953 11.47486,-5.17117 17.1875,-7.8125 1.01836,-0.46922 2.03672,-0.93844 3.08594,-1.42188 1.82465,-0.84983 3.6431,-1.71319 5.45312,-2.59375 29.8666,-14.25656 64.92162,-18.09948 96.54226,-7.42749 17.3772,6.16743 31.8591,16.60944 46.8606,27.094 38.3539,26.72488 78.7076,33.13294 124.5122,25.16113 23.4769,-4.37467 46.4031,-13.57235 68.1787,-23.15576 6.9995,-2.97849 14.1735,-5.52414 21.3135,-8.14307 3.1313,-1.15901 6.1859,-2.35148 9.2295,-3.73193 15.4008,-6.68052 33.1435,-9.73735 49.7617,-11.53125 0.8506,-0.0928 1.7012,-0.18563 2.5776,-0.28125 45.9124,-4.61017 87.0362,9.09225 128.9849,25.84375 73.2955,29.25372 147.8321,32.17429 222.4375,4.4375 1.1898,-0.43184 2.3796,-0.86367 3.6055,-1.30859 13.2221,-4.91202 25.693,-11.29383 38.207,-17.75391 1.1448,-0.58967 2.2897,-1.17933 3.4692,-1.78687 6.0745,-3.15806 12.0024,-6.43646 17.7991,-10.08203 1.9192,-1.0686 1.9192,-1.0686 3.9192,-1.0686 0,15.18 0,30.36 0,46 -47.5531,25.02797 -95.4018,40.13735 -149,45 -0.7633,0.072 -1.5266,0.14405 -2.313,0.21826 -37.0975,3.35631 -74.7376,0.38158 -110.3643,-10.51758 -3.3838,-1.02077 -6.7903,-1.94908 -10.1977,-2.88818 -4.5614,-1.30095 -8.7863,-2.88419 -13.125,-4.8125 -1.8913,-0.63875 -3.7877,-1.26216 -5.6875,-1.875 -5.1388,-1.68108 -10.0764,-3.65251 -15.0469,-5.77344 -4.4048,-1.82304 -8.8696,-3.46605 -13.3406,-5.11841 -4.0419,-1.50227 -8.024,-3.09396 -11.9875,-4.79565 -54.1499,-22.75021 -102.9181,-13.42893 -155.5186,8.02295 -2.2514,0.93104 -4.5021,1.86363 -6.7522,2.79785 -28.0441,11.64364 -57.2556,21.87202 -87.6667,24.7417 -0.9488,0.10957 -1.8975,0.21914 -2.875,0.33203 -54.3241,5.41796 -99.0378,-9.57045 -143.1699,-39.72949 -21.3734,-14.5843 -41.89386,-24.33679 -68.34184,-19.98926 -4.2859,0.86345 -8.44848,2.06503 -12.61328,3.38672 -0.75104,0.23654 -1.50208,0.47309 -2.27588,0.7168 -13.88415,4.49925 -27.17892,10.45126 -40.53708,16.28549 -27.21198,11.87623 -54.76727,22.18231 -84.18704,26.99771 -0.69062,0.11714 -1.38123,0.23429 -2.09277,0.35498 -49.68851,8.06569 -96.04958,-4.6142 -136.55176,-33.67139 -7.15283,-5.19081 -14.18466,-10.52445 -21.12769,-15.99218 -18.21201,-14.3381 -37.12254,-28.12277 -59.22778,-35.69141 -1.14469,-0.42539 -1.14469,-0.42539 -2.3125,-0.85938 -31.47562,-11.34048 -63.61605,-5.23819 -93.09082,8.60157 -19.63364,9.51039 -38.09133,21.45537 -56.16187,33.62573 -14.73866,9.91101 -29.91243,19.00721 -45.43481,27.63208 -0.78311,0.44086 -1.56621,0.88172 -2.37305,1.33594 -48.32552,27.09842 -103.67667,37.38079 -158.37695,28.04492 -1.97508,-0.33432 -3.95599,-0.63387 -5.9375,-0.92773 -24.55576,-4.12984 -48.562,-14.93816 -70.3125,-26.45313 0,-15.51 0,-31.02 0,-47 5.62482,2.81241 10.86477,5.43277 16.1875,8.625 43.08421,24.96719 92.4547,36.44135 141.54297,24.46484 3.44796,-0.96231 6.85672,-2.00988 10.26953,-3.08984 1.34312,-0.39928 2.68689,-0.79633 4.03125,-1.19141 7.96849,-2.36898 15.47758,-5.1887 22.96875,-8.80859 1.15629,-0.50531 2.31258,-1.01063 3.50391,-1.53125 19.52892,-8.6152 37.78199,-20.43198 55.5498,-32.18311 49.61781,-32.77563 49.61781,-32.77563 75.8584,-43.4226 1.60393,-0.66299 3.1971,-1.35208 4.78516,-2.05225 7.07108,-3.07316 14.0356,-5.30306 21.55273,-6.99829 1.12116,-0.25338 2.24232,-0.50676 3.39746,-0.76782 39.41129,-8.47492 79.94051,-3.47 115.35254,15.95532 z"
       fill="#da5c57"
       id="path1039" />
  </g>
</svg>
