<svg width="25" height="28" viewBox="0 0 25 28" fill="none" xmlns="http://www.w3.org/2000/svg"><path d="M5.662.103C3.284.533 1.212 2.312.404 4.625-.006 5.804 0 5.655 0 13.876c0 6.587.013 7.545.104 8.085.47 2.73 2.41 4.841 5.16 5.616.482.13.652.137 4.053.163l3.55.02.293-.157c.163-.084.385-.28.49-.43.175-.254.194-.325.194-.788s-.019-.534-.195-.788a1.685 1.685 0 0 0-.482-.43l-.287-.15H9.812c-2.28-.007-3.193-.026-3.558-.091-1.335-.241-2.417-1.043-2.996-2.222-.483-.977-.457-.45-.457-8.828s-.026-7.85.457-8.828c.527-1.075 1.42-1.798 2.67-2.17.3-.084.893-.11 3.727-.136l3.362-.04.287-.201c.423-.313.586-.671.56-1.212-.026-.534-.254-.906-.697-1.14l-.287-.15L9.52.006C6.97.012 6.039.032 5.662.103Z" fill="#DA5C57"/><path d="M17.734 6.965c-.547.143-1.055.762-1.055 1.296 0 .586.058.665 1.882 2.502l1.727 1.746h-5.453c-5.277 0-5.466.006-5.707.124-.821.423-1.036 1.46-.443 2.137.443.501.071.475 6.17.475h5.433l-1.727 1.74c-1.44 1.453-1.74 1.791-1.804 2.013-.117.41-.091.684.091 1.062.293.586.906.866 1.557.717.313-.072.43-.183 3.342-3.082 1.662-1.648 3.062-3.082 3.114-3.18.137-.267.183-.703.092-1.029-.066-.267-.359-.58-3.082-3.303-1.655-1.661-3.095-3.055-3.205-3.114-.268-.124-.665-.17-.932-.104Z" fill="#DA5C57"/></svg>