<svg width="17" height="17" viewBox="0 0 17 17" fill="none" xmlns="http://www.w3.org/2000/svg"><circle cx="8.5" cy="8.5" r="8.5" fill="#da5c57"/><g clip-path="url(#a)"><path d="M4.977 4.55a.56.56 0 0 0-.397.31.432.432 0 0 0-.045.228c0 .258-.113.13 1.788 2.026l1.68 1.677-1.695 1.694c-1.375 1.377-1.7 1.709-1.731 1.777a.622.622 0 0 0-.004.448.64.64 0 0 0 .261.27c.12.062.311.07.45.02.096-.036.156-.092 1.8-1.733l1.7-1.695 1.692 1.687c1.359 1.355 1.708 1.695 1.774 1.727.07.033.109.04.242.04.138 0 .168-.007.24-.045a.657.657 0 0 0 .264-.276.627.627 0 0 0-.005-.443c-.032-.068-.356-.4-1.732-1.777L9.566 8.791l1.68-1.677c1.9-1.896 1.787-1.768 1.787-2.026a.433.433 0 0 0-.043-.224.557.557 0 0 0-.755-.262c-.043.021-.65.614-1.758 1.72L8.784 8.011 7.092 6.322c-1.109-1.106-1.716-1.699-1.759-1.72a.945.945 0 0 0-.272-.068l-.084.016Z" fill="#fff"/></g><defs><clipPath id="a"><path fill="#fff" transform="translate(4.533 4.533)" d="M0 0h8.5v8.5H0z"/></clipPath></defs></svg>