<svg width="18" height="18" viewBox="0 0 18 18" fill="none" xmlns="http://www.w3.org/2000/svg"><circle cx="9" cy="9" r="9" fill="#9aca3c"/><path d="M12.367 6.004a1.277 1.277 0 0 0-.257.091c-.133.064-.199.128-2.14 2.066-1.101 1.1-2.029 2.012-2.062 2.029a.27.27 0 0 1-.22.009c-.027-.01-.41-.375-.846-.81-.745-.74-.805-.795-.933-.859a1.058 1.058 0 0 0-.504-.122 1.081 1.081 0 0 0-.93 1.639c.05.086.374.42 1.377 1.421 1.257 1.255 1.315 1.31 1.447 1.374.33.16.648.158.988-.009l.155-.075 2.466-2.464a268.099 268.099 0 0 0 2.538-2.554c.26-.337.307-.763.126-1.144a1.085 1.085 0 0 0-1.205-.592Z" fill="#fff"/></svg>