<svg width="19" height="24" viewBox="0 0 19 24" fill="none" xmlns="http://www.w3.org/2000/svg"><circle cx="9.5" cy="11.5" r="8.5" fill="#039" stroke="#039" stroke-width="2"/><path d="M8.103 6.685c0-.38.13-.7.39-.96s.595-.39 1.005-.39c.41 0 .745.13 1.005.39.26.26.39.58.39.96 0 .37-.13.69-.39.96-.26.26-.595.39-1.005.39-.41 0-.745-.13-1.005-.39-.26-.27-.39-.59-.39-.96Zm.12 5.355h2.55v3.945c-.11.03-.27.06-.48.09-.2.03-.42.045-.66.045-.49 0-.85-.085-1.08-.255-.22-.17-.33-.485-.33-.945v-2.88Zm2.55 1.335h-2.55v-4.56a4.78 4.78 0 0 1 1.14-.135c.5 0 .86.085 1.08.255.22.16.33.475.33.945v3.495Z" fill="#fff"/></svg>