<svg width="30" height="36" viewBox="0 0 30 36" fill="none" xmlns="http://www.w3.org/2000/svg"><g clip-path="url(#a)" fill="#fff"><path d="M13.455.093c-1.92.295-3.634 1.209-4.977 2.636C7.002 4.297 6.235 6.11 6.13 8.283c-.148 3.036 1.343 5.94 3.916 7.62 1.265.83 2.481 1.251 3.957 1.37 2.735.211 5.069-.646 6.953-2.565 1.497-1.519 2.256-3.178 2.439-5.294.253-2.826-.816-5.455-2.945-7.297C19.072.937 17.806.346 16.056.093c-.844-.12-1.828-.127-2.601 0Z"/><path d="M7.072 17.428c-3.177.338-5.385 2.615-6.411 6.636-.682 2.679-.858 5.898-.422 7.663.359 1.413 1.533 2.847 2.89 3.536.611.309 1.49.562 2.228.646.436.057 3.754.07 10.101.057l9.455-.022.598-.168c2.221-.605 3.74-2.095 4.295-4.19.288-1.09.253-3.69-.084-5.743-.738-4.57-2.608-7.311-5.568-8.169-.675-.196-1.884-.344-2.242-.274-.345.064-.823.317-1.905 1.013-1.153.745-1.315.829-2.18 1.152-.998.373-1.82.535-2.783.535-.985 0-1.744-.141-2.742-.492-.942-.338-.984-.359-2.46-1.294-.774-.492-1.35-.808-1.575-.872-.394-.098-.394-.098-1.195-.014Z"/></g><defs><clipPath id="a"><path fill="#fff" d="M0 0h30v35.97H0z"/></clipPath></defs></svg>