<?xml version="1.0" standalone="no"?>
<!DOCTYPE svg PUBLIC "-//W3C//DTD SVG 20010904//EN"
 "http://www.w3.org/TR/2001/REC-SVG-20010904/DTD/svg10.dtd">
<svg version="1.0" xmlns="http://www.w3.org/2000/svg"
 width="700.000000pt" height="700.000000pt" viewBox="0 0 700.000000 700.000000"
 preserveAspectRatio="xMidYMid meet">
<metadata>
Created by potrace 1.14, written by Peter Selinger 2001-2017
</metadata>
<g transform="translate(0.000000,700.000000) scale(0.100000,-0.100000)"
fill="#000000" stroke="none">
<path d="M1378 6225 c-2 -2 -28 -5 -58 -9 -119 -13 -148 -18 -235 -37 -49 -11
-99 -21 -110 -23 -73 -15 -451 -167 -555 -223 -36 -20 -145 -88 -242 -152
l-178 -116 0 -302 c0 -167 4 -303 9 -303 4 0 93 56 197 123 607 397 938 530
1324 531 200 0 279 -12 449 -70 234 -80 479 -221 731 -421 73 -59 71 -57 185
-143 55 -41 102 -77 105 -80 10 -10 158 -110 164 -110 3 0 24 -13 48 -29 162
-108 420 -216 656 -275 300 -75 676 -82 982 -19 41 8 86 17 100 20 130 23 577
164 642 203 10 5 23 10 29 10 6 0 25 6 42 14 265 121 638 270 777 311 185 54
399 68 499 31 24 -9 47 -16 52 -16 5 0 9 116 9 259 l0 259 -32 6 c-18 3 -44 8
-58 11 -161 32 -343 24 -521 -23 -84 -23 -240 -85 -389 -155 -103 -49 -142
-66 -360 -165 -220 -99 -274 -120 -417 -167 -124 -41 -314 -86 -428 -101 -27
-3 -59 -8 -70 -10 -39 -8 -191 -17 -270 -17 -190 0 -374 30 -555 90 -130 43
-346 147 -464 225 -49 32 -91 58 -93 58 -6 0 -356 260 -363 270 -11 14 -221
162 -300 211 -115 71 -314 169 -430 212 -121 45 -300 90 -410 102 -25 3 -58 8
-75 12 -28 6 -381 13 -387 8z"/>
<path d="M727 3955 c-3 -9 -1 -1259 2 -1277 0 -5 75 -8 166 -8 l165 0 0 648 0
648 -165 0 c-105 0 -166 -4 -168 -11z"/>
<path d="M2670 3778 c0 -138 0 -139 -22 -138 -13 1 -48 2 -78 1 l-55 -1 0
-107 0 -108 77 -3 77 -3 4 -267 c2 -171 8 -280 15 -303 26 -79 83 -136 161
-160 42 -14 421 -25 422 -12 0 4 2 54 2 111 l2 102 -25 1 c-14 0 -66 1 -115 2
-105 2 -139 17 -149 68 -3 17 -6 128 -6 245 l0 214 160 0 160 0 0 110 c0 98
-2 110 -17 111 -10 0 -82 0 -160 0 l-143 -1 0 138 0 139 -155 0 -155 0 0 -139z"/>
<path d="M1930 3655 c-76 -15 -123 -40 -185 -97 -29 -26 -55 -48 -57 -48 -2 0
-3 29 -3 65 1 36 -2 65 -5 65 -9 1 -212 1 -260 1 l-46 -1 0 -485 0 -485 156 0
155 0 0 253 c-1 272 5 339 35 396 65 128 237 150 297 38 16 -30 22 -205 23
-649 l0 -38 155 0 155 0 0 343 c-1 365 -5 399 -51 492 -61 122 -212 183 -369
150z"/>
<path d="M3908 3665 c-2 -1 -28 -5 -58 -8 -57 -6 -144 -33 -197 -61 -64 -33
-142 -116 -178 -189 -46 -96 -55 -141 -51 -272 5 -206 76 -333 239 -424 96
-54 305 -80 462 -57 66 9 211 45 256 63 l35 14 -1 114 c0 63 -3 116 -5 116 -3
1 -24 -8 -47 -19 -53 -27 -181 -71 -236 -80 -23 -4 -83 -7 -133 -7 -81 1 -95
4 -145 31 -43 24 -59 41 -81 84 -16 29 -28 64 -28 77 l0 23 360 0 360 0 0 79
c0 108 -14 174 -56 258 -78 160 -220 247 -422 257 -39 2 -73 2 -74 1z m145
-234 c44 -27 74 -74 83 -129 l6 -41 -201 0 c-226 0 -218 -3 -182 74 24 51 68
93 117 110 55 19 134 13 177 -14z"/>
<path d="M4977 3658 c-156 -20 -294 -162 -337 -345 -13 -55 -16 -203 -5 -263
40 -236 219 -393 429 -377 39 3 91 13 116 23 47 18 119 71 156 114 l22 25 -4
-80 c-4 -87 -14 -123 -52 -174 -51 -69 -191 -104 -322 -81 -70 12 -196 56
-206 71 -3 5 -11 9 -17 9 -9 0 -12 -32 -12 -117 l0 -117 46 -16 c156 -56 434
-55 587 2 155 58 256 176 282 329 5 30 9 262 9 517 l1 462 -32 1 c-116 2 -268
0 -275 -4 -5 -3 -8 -33 -8 -66 1 -34 0 -61 -2 -61 -2 0 -25 21 -51 46 -83 82
-199 118 -325 102z m271 -242 c112 -58 146 -325 55 -444 -51 -67 -129 -91
-215 -65 -89 26 -134 108 -137 247 -3 136 44 238 124 272 40 17 132 12 173
-10z"/>
<path d="M6568 3665 c-2 -2 -22 -5 -45 -9 -81 -11 -173 -70 -225 -146 -17 -25
-17 -24 -17 53 l-1 77 -27 1 c-39 0 -233 0 -260 0 l-23 -1 0 -485 0 -485 155
0 155 0 1 255 c1 140 2 258 3 263 1 4 5 24 10 46 14 73 69 138 142 167 40 16
151 13 203 -6 24 -8 45 -15 47 -15 2 0 4 63 4 140 0 138 0 140 -22 141 -13 0
-40 2 -60 4 -20 1 -38 2 -40 0z"/>
<path d="M3543 2103 c-172 -27 -280 -79 -388 -188 -118 -119 -171 -258 -174
-456 -5 -293 116 -506 352 -618 98 -47 198 -66 352 -65 192 0 325 27 496 101
l35 15 0 312 -1 311 -257 1 c-142 0 -258 -2 -259 -5 -3 -24 -5 -198 -2 -207 3
-8 31 -12 76 -12 40 0 84 -1 100 -1 l27 -1 0 -124 c0 -148 4 -143 -153 -150
-297 -13 -461 194 -415 526 34 249 247 373 548 318 75 -14 186 -53 247 -86
l44 -25 -3 137 -3 136 -48 19 c-166 65 -395 90 -574 62z"/>
<path d="M2044 2092 l-41 -3 -46 -122 c-174 -466 -427 -1154 -427 -1163 0 -12
319 -10 329 2 5 5 23 54 42 109 18 55 36 104 41 109 5 7 437 12 514 7 6 -1 28
-53 50 -116 32 -95 42 -115 59 -116 11 0 85 -1 165 -1 118 -1 145 2 144 13 -1
8 -41 120 -89 249 -155 419 -275 742 -328 885 -28 77 -52 142 -53 144 -4 4
-304 7 -360 3z m257 -587 c43 -126 79 -230 79 -231 0 0 -79 0 -175 -1 -96 0
-175 3 -175 8 0 4 13 45 29 91 16 46 52 151 81 233 28 83 54 157 57 165 6 19
5 22 104 -265z"/>
<path d="M4533 2092 l-23 -3 0 -645 c0 -508 3 -644 13 -645 6 0 213 -1 460 -2
l447 -2 0 128 0 127 -293 0 -292 0 0 148 0 147 245 1 c135 1 255 2 268 3 22 1
22 2 21 125 l-2 125 -211 0 c-116 0 -236 0 -266 1 l-55 0 0 120 0 120 282 0
283 0 0 125 c0 69 -3 125 -7 126 -36 2 -853 3 -870 1z"/>
</g>
</svg>
